HIERARCHY
ROOT Hips
{
	OFFSET 0.00000 0.00000 0.00000
	CHANNELS 6 Xposition Yposition Zposition Zrotation Yrotation Xrotation 
	JOINT LHipJoint
	{
		OFFSET 0 0 0
		CHANNELS 3 Zrotation Yrotation Xrotation
		JOINT LeftHip
		{
			OFFSET 1.28858 -1.83292 1.03970
			CHANNELS 3 Zrotation Yrotation Xrotation
			JOINT LeftKnee
			{
				OFFSET 2.47846 -6.80952 0.00000
				CHANNELS 3 Zrotation Yrotation Xrotation
				JOINT LeftAnkle
				{
					OFFSET 2.75274 -7.56311 0.00000
					CHANNELS 3 Zrotation Yrotation Xrotation
					JOINT LeftToe
					{
						OFFSET 0.12848 -0.35301 1.68223
						CHANNELS 3 Zrotation Yrotation Xrotation
						End Site
						{
							OFFSET 0.00000 -0.00000 0.87311
						}
					}
				}
			}
		}
	}
	JOINT RHipJoint
	{
		OFFSET 0 0 0
		CHANNELS 3 Zrotation Yrotation Xrotation
		JOINT RightHip
		{
			OFFSET -1.31183 -1.83292 1.03970
			CHANNELS 3 Zrotation Yrotation Xrotation
			JOINT RightKnee
			{
				OFFSET -2.44740 -6.72417 0.00000
				CHANNELS 3 Zrotation Yrotation Xrotation
				JOINT RightAnkle
				{
					OFFSET -2.67343 -7.34519 0.00000
					CHANNELS 3 Zrotation Yrotation Xrotation
					JOINT RightToe
					{
						OFFSET -0.16914 -0.46471 1.77626
						CHANNELS 3 Zrotation Yrotation Xrotation
						End Site
						{
							OFFSET -0.00000 -0.00000 0.92777
						}
					}
				}
			}
		}
	}
	JOINT lowerback
	{
		OFFSET 0 0 0
		CHANNELS 3 Zrotation Yrotation Xrotation
		JOINT Chest
		{
			OFFSET 0.01249 2.14252 0.03842
			CHANNELS 3 Zrotation Yrotation Xrotation
			JOINT Chest2
			{
				OFFSET -0.02957 2.14199 -0.03751
				CHANNELS 3 Zrotation Yrotation Xrotation
				JOINT lowerneck
				{
					OFFSET 0 0 0
					CHANNELS 3 Zrotation Yrotation Xrotation
					JOINT Neck
					{
						OFFSET -0.01678 1.65709 -0.05476
						CHANNELS 3 Zrotation Yrotation Xrotation
						JOINT Head
						{
							OFFSET 0.07912 1.58331 -0.11843
							CHANNELS 3 Zrotation Yrotation Xrotation
							End Site
							{
								OFFSET 0.03298 1.73940 -0.04271
							}
						}
					}
				}
				JOINT LeftCollar
				{
					OFFSET 0 0 0
					CHANNELS 3 Zrotation Yrotation Xrotation
					JOINT LeftShoulder
					{
						OFFSET 3.39556 1.16496 0.08673
CHANNELS 3 Zrotation Xrotation Yrotation
						JOINT LeftElbow
						{
OFFSET 0 -5.239100 -0.000000
CHANNELS 3 Zrotation Xrotation Yrotation
							JOINT LeftWrist
							{
OFFSET 0 -3.314670 0.000000
CHANNELS 3 Zrotation Xrotation Yrotation
								JOINT lhand
								{
									OFFSET 0 0 0
CHANNELS 3 Zrotation Xrotation Yrotation
									JOINT LFingers
									{
OFFSET 0 -0.965900 0.000000
CHANNELS 3 Zrotation Xrotation Yrotation
										End Site
										{
OFFSET 0 -0.778730 0.000000
										}
									}
								}
								JOINT LThumb
								{
OFFSET 0 0.000000 0.000000
CHANNELS 3 Zrotation Xrotation Yrotation
									End Site
									{
OFFSET 0 -0.790620 0.790620
									}
								}
							}
						}
					}
				}
				JOINT RightCollar
				{
					OFFSET 0 0 0
					CHANNELS 3 Zrotation Yrotation Xrotation
					JOINT RightShoulder
					{
						OFFSET -3.27193 1.31331 0.33940
CHANNELS 3 Zrotation Xrotation Yrotation
						JOINT RightElbow
						{
OFFSET 0 -5.302520 0.000000
CHANNELS 3 Zrotation Xrotation Yrotation
							JOINT RightWrist
							{
OFFSET 0 -3.678750 0.000000
CHANNELS 3 Zrotation Xrotation Yrotation
								JOINT rhand
								{
									OFFSET 0 0 0
CHANNELS 3 Zrotation Xrotation Yrotation
									JOINT RFingers
									{
OFFSET 0 -0.594810 0.000000
CHANNELS 3 Zrotation Xrotation Yrotation
										End Site
										{
OFFSET 0 -0.479550 0.000000
										}
									}
								}
								JOINT RThumb
								{
OFFSET 0 0.000000 0.000000
CHANNELS 3 Zrotation Xrotation Yrotation
									End Site
									{
OFFSET 0 -0.486870 0.486870
									}
								}
							}
						}
					}
				}
			}
		}
	}
}
MOTION
Frames: 12
Frame Time: 0.008333333333333333
10.801900 21.555600 14.677600 3.940500 -1.032600 3.269100 0.000000 0.000000 0.000000 -17.097700 1.547100 2.202800 0.004100 0.412700 1.134000 0.133500 -1.238800 -6.577900 0.228400 3.076300 8.491300 0.000000 0.000000 0.000000 12.069500 10.059200 10.627600 -0.038800 1.272000 -3.497600 -0.987400 -7.956100 -23.253800 -0.490800 -4.491800 12.464600 -3.612700 -2.580300 -5.618200 -0.163700 -3.199500 -0.154600 1.585100 -1.644400 3.177400 -23.451200 -17.917800 12.599700 19.385900 -27.775100 3.915200 7.936300 -14.432900 5.188300 -0.000000 -0.000000 0.000000 1.390700 3.115800 -23.151400 12.858600 -21.079700 2.402200 2.728500 -2.154900 13.681800 0.000000 0.000000 0.000000 -7.125000 0.000000 0.000000 -16.793600 16.628300 -11.808500 -0.000000 -0.000000 0.000000 -5.463000 5.514800 28.236000 -11.963600 -19.750000 -2.090000 -6.513000 10.438500 40.233000 0.000000 0.000000 0.000000 7.125000 0.000000 -0.000000 38.941200 66.424700 -21.471600
10.781347 21.512368 14.608512 3.559848 -0.534444 4.213491 0.000000 0.000000 0.000000 -16.242314 1.802911 0.180869 0.013145 0.734215 2.017871 0.108576 -2.278868 -5.860501 0.052046 1.343781 3.697341 0.000000 0.000000 0.000000 12.748323 11.243166 9.734849 -0.033696 1.184609 -3.257010 -1.138263 -8.441809 -24.850138 -0.560388 -4.793806 13.321638 -3.654466 -2.841338 -5.818910 0.152086 -3.551778 -0.464615 1.901434 -1.815907 3.012084 -13.748845 -17.584084 16.651131 15.673250 -25.067996 -6.475508 7.354701 -13.123633 -0.796577 0.000000 0.000000 0.000000 1.359812 3.069031 -23.612264 13.102959 -21.437892 2.490775 2.498103 -2.935797 13.220544 0.000000 0.000000 0.000000 -7.125000 0.000000 0.000000 -16.984325 17.077380 -11.780279 0.000000 0.000000 0.000000 -5.515651 5.257063 27.516907 -11.811784 -19.521724 -2.038955 -6.301408 10.846726 40.308746 0.000000 0.000000 0.000000 7.125000 0.000000 0.000000 39.271492 66.419215 -21.673034
10.792130 21.505622 14.584699 3.405672 -0.567094 4.218104 0.000000 0.000000 0.000000 -16.102555 1.750308 0.230358 0.011930 0.705489 1.938801 0.119198 -2.385359 -6.131886 0.074097 1.753448 4.824856 0.000000 0.000000 0.000000 12.779709 10.794824 9.335130 -0.031383 1.142859 -3.142012 -1.180296 -7.812911 -24.728627 -0.478032 -4.433334 12.299105 -3.472033 -2.824753 -5.741873 0.182535 -3.545563 -0.466201 1.835526 -1.810135 2.957381 -13.416484 -18.118679 14.348652 13.773876 -25.725758 -3.899773 6.346379 -13.300662 0.111063 0.000000 0.000000 0.000000 1.387038 2.989680 -23.493652 13.005311 -21.295051 2.455198 2.496253 -2.470234 13.395191 0.000000 0.000000 0.000000 -7.125000 0.000000 0.000000 -16.971108 16.910336 -11.835472 0.000000 0.000000 0.000000 -5.444364 5.263287 26.862530 -11.721092 -19.384988 -2.008744 -6.626293 11.309136 40.250153 0.000000 0.000000 0.000000 7.125000 0.000000 0.000000 38.853868 66.471242 -21.457491
10.804118 21.495196 14.556871 3.154194 -0.452928 4.305300 0.000000 0.000000 0.000000 -15.855784 1.726963 0.096839 0.011747 0.698327 1.919149 0.121136 -2.594769 -6.187449 0.136039 2.364783 6.515335 0.000000 0.000000 0.000000 12.879163 10.112798 8.761207 -0.027910 1.078940 -2.965945 -1.218848 -7.168132 -24.585201 -0.379024 -3.949213 10.934389 -3.182443 -2.882030 -5.724001 0.269267 -3.643766 -0.466823 1.755651 -1.855720 2.940014 -12.360828 -18.207601 13.938348 12.682298 -25.634564 -4.070962 5.941151 -13.203482 -0.167019 0.000000 0.000000 0.000000 1.392186 2.885740 -23.407630 12.968892 -21.241581 2.441985 2.355817 -2.004639 13.394206 0.000000 0.000000 0.000000 -7.125000 0.000000 0.000000 -17.064582 16.915661 -11.904914 0.000000 0.000000 0.000000 -5.457481 5.195617 26.421956 -11.654228 -19.284015 -1.986597 -6.924583 11.649536 40.249507 0.000000 0.000000 0.000000 7.125000 0.000000 0.000000 38.551714 66.559173 -21.344708
10.820112 21.487336 14.532871 2.939517 -0.362988 4.300189 0.000000 0.000000 0.000000 -15.706672 1.718191 0.138438 0.010223 0.652421 1.792862 0.123176 -2.754342 -6.248277 0.232309 3.099428 8.555949 0.000000 0.000000 0.000000 12.878030 9.163052 8.188890 -0.023670 0.992942 -2.729497 -1.249433 -6.356967 -24.290773 -0.256523 -3.253975 8.987122 -2.875759 -2.932555 -5.736364 0.325631 -3.731294 -0.392418 1.631978 -1.897410 3.012776 -12.240552 -18.220022 13.631553 12.366758 -25.624489 -3.811606 5.799409 -13.179284 -0.102068 0.000000 0.000000 0.000000 1.423757 2.706106 -23.346265 12.906422 -21.149898 2.419424 2.172818 -1.475892 13.397391 0.000000 0.000000 0.000000 -7.125000 0.000000 0.000000 -17.185979 16.918340 -11.996971 0.000000 0.000000 0.000000 -5.480939 5.072469 26.119582 -11.600657 -19.203006 -1.968932 -7.315575 11.910472 40.198425 0.000000 0.000000 0.000000 7.125000 0.000000 0.000000 38.076117 66.636434 -21.114253
10.832574 21.478299 14.505196 2.733754 -0.302505 4.299416 0.000000 0.000000 0.000000 -15.530347 1.707838 0.127883 0.009127 0.618214 1.698825 0.126315 -2.943179 -6.338288 0.288670 3.454645 9.547282 0.000000 0.000000 0.000000 12.933359 8.515396 7.695646 -0.018861 0.886215 -2.435854 -1.305411 -5.620378 -24.275086 -0.168521 -2.640492 7.279564 -2.617377 -2.966170 -5.740851 0.372981 -3.793310 -0.305697 1.528228 -1.926871 3.094536 -12.230263 -18.190938 13.608472 12.398445 -25.579607 -3.827689 5.807971 -13.157699 -0.105797 0.000000 0.000000 0.000000 1.520480 2.487030 -23.478141 12.842483 -21.055933 2.396432 2.014416 -1.163932 13.375544 0.000000 0.000000 0.000000 -7.125000 0.000000 0.000000 -17.293060 16.944025 -12.068965 0.000000 0.000000 0.000000 -5.460653 4.920375 25.825104 -11.556816 -19.136662 -1.954605 -7.694723 12.115942 40.044769 0.000000 0.000000 0.000000 7.125000 0.000000 0.000000 37.453227 66.631636 -20.723634
10.839916 21.467254 14.476652 2.495868 -0.348570 4.313994 0.000000 0.000000 0.000000 -15.248978 1.682883 0.104252 0.008252 0.587442 1.614305 0.135741 -3.134614 -6.579183 0.294368 3.488768 9.642694 0.000000 0.000000 0.000000 13.132741 8.396069 7.369726 -0.014839 0.785734 -2.159545 -1.390166 -5.045325 -24.598850 -0.125627 -2.283813 6.290706 -2.388963 -2.951581 -5.725676 0.425590 -3.790292 -0.243663 1.454412 -1.923538 3.138605 -12.198759 -18.168134 13.603223 12.490982 -25.539929 -3.852894 5.832337 -13.142261 -0.108743 0.000000 0.000000 0.000000 1.668827 2.290548 -23.789643 12.759975 -20.934585 2.366885 1.963853 -1.068404 13.369319 0.000000 0.000000 0.000000 -7.125000 0.000000 0.000000 -17.327181 16.951581 -12.092195 0.000000 0.000000 0.000000 -5.387832 4.823442 25.490139 -11.544939 -19.118723 -1.950693 -7.944921 12.258097 39.860110 0.000000 0.000000 0.000000 7.125000 0.000000 0.000000 36.914979 66.563495 -20.335192
10.844296 21.455311 14.449539 2.215895 -0.433638 4.331839 0.000000 0.000000 0.000000 -14.876096 1.659599 0.098460 0.007393 0.555176 1.525589 0.150163 -3.357811 -6.926728 0.292340 3.476907 9.609367 0.000000 0.000000 0.000000 13.443581 8.552712 7.189970 -0.012402 0.719619 -1.977705 -1.482502 -4.638808 -25.077688 -0.103965 -2.078184 5.721747 -2.155141 -2.918398 -5.665035 0.493741 -3.764898 -0.219237 1.399117 -1.908144 3.118218 -12.194922 -18.142741 13.629223 12.605699 -25.505324 -3.855085 5.866562 -13.130980 -0.102535 0.000000 0.000000 0.000000 1.815304 2.144757 -24.126666 12.653248 -20.777057 2.328859 2.006083 -1.011931 13.367944 0.000000 0.000000 0.000000 -7.125000 0.000000 0.000000 -17.299244 16.951520 -12.070793 0.000000 0.000000 0.000000 -5.303058 4.816797 25.196033 -11.584493 -19.178597 -1.963690 -8.009422 12.271359 39.730212 0.000000 0.000000 0.000000 7.125000 0.000000 0.000000 36.652590 66.482128 -20.107281
10.849158 21.443681 14.424554 1.978203 -0.491113 4.348661 0.000000 0.000000 0.000000 -14.553556 1.678483 0.094809 0.006642 0.527233 1.448734 0.165879 -3.669427 -7.296897 0.280902 3.408717 9.418849 0.000000 0.000000 0.000000 13.690793 8.632665 7.041479 -0.011085 0.679081 -1.866145 -1.560536 -4.338275 -25.500214 -0.071838 -1.721765 4.737406 -1.970926 -2.915616 -5.592749 0.562956 -3.776765 -0.214897 1.370360 -1.911749 3.075393 -12.194735 -18.110469 13.603283 12.613140 -25.465689 -3.753734 5.861590 -13.111620 -0.072172 0.000000 0.000000 0.000000 1.931034 2.032500 -24.394708 12.534487 -20.601382 2.286871 2.063150 -0.932625 13.325487 0.000000 0.000000 0.000000 -7.125000 0.000000 0.000000 -17.264987 16.990444 -12.028941 0.000000 0.000000 0.000000 -5.256996 4.877624 25.130541 -11.689035 -19.336637 -1.998153 -7.994903 12.092467 39.723407 0.000000 0.000000 0.000000 7.125000 0.000000 0.000000 36.657036 66.472555 -20.102229
10.856022 21.433746 14.400857 1.863742 -0.508239 4.359222 0.000000 0.000000 0.000000 -14.408284 1.732143 0.096333 0.006023 0.502431 1.380560 0.181715 -4.060066 -7.665457 0.248642 3.208531 8.859813 0.000000 0.000000 0.000000 13.736304 8.469684 6.831797 -0.009845 0.641508 -1.762971 -1.621628 -4.000611 -25.774745 -0.031281 -1.138306 3.129497 -1.897470 -2.949096 -5.541567 0.600120 -3.828243 -0.212465 1.365828 -1.936539 3.049153 -12.124148 -18.086747 13.543919 12.458920 -25.428886 -3.599099 5.801413 -13.086691 -0.050505 0.000000 0.000000 0.000000 2.042366 1.928154 -24.618734 12.404753 -20.408809 2.241397 2.086695 -0.882488 13.314567 0.000000 0.000000 0.000000 -7.125000 0.000000 0.000000 -17.250258 17.000144 -12.013776 0.000000 0.000000 0.000000 -5.224568 4.963736 25.225154 -11.829325 -19.548106 -2.044806 -7.965585 11.800724 39.765191 0.000000 0.000000 0.000000 7.125000 0.000000 0.000000 36.750104 66.496286 -20.178604
10.865797 21.425885 14.377462 1.862377 -0.498771 4.362195 0.000000 0.000000 0.000000 -14.446249 1.764956 0.126249 0.005354 0.470924 1.293876 0.198419 -4.470101 -8.045583 0.190665 2.807914 7.744731 0.000000 0.000000 0.000000 13.579595 8.033676 6.512989 -0.008408 0.591624 -1.625753 -1.666408 -3.480063 -25.845299 -0.007066 -0.510467 1.402769 -1.901681 -2.996369 -5.515095 0.589139 -3.891090 -0.206524 1.352732 -1.967847 3.042424 -12.001864 -18.074583 13.498663 12.253520 -25.400119 -3.464381 5.725630 -13.064237 -0.048859 0.000000 0.000000 0.000000 2.173669 1.833210 -24.818106 12.279525 -20.222507 2.197949 2.084482 -0.862333 13.346510 0.000000 0.000000 0.000000 -7.125000 0.000000 0.000000 -17.248940 16.969683 -12.024940 0.000000 0.000000 0.000000 -5.147743 5.071223 25.344160 -11.992727 -19.793665 -2.099871 -7.898447 11.482927 39.827141 0.000000 0.000000 0.000000 7.125000 0.000000 0.000000 36.912575 66.524378 -20.301412
10.877180 21.418925 14.355453 1.856624 -0.479328 4.360725 0.000000 0.000000 0.000000 -14.501422 1.783580 0.175540 0.004471 0.429552 1.180127 0.213621 -4.867546 -8.388117 0.126031 2.287793 6.301822 0.000000 0.000000 0.000000 13.404732 7.488312 6.150711 -0.006862 0.533414 -1.465881 -1.703256 -2.799662 -25.795223 -0.000196 -0.074245 0.203888 -1.879144 -3.045952 -5.506004 0.576500 -3.958357 -0.196445 1.321657 -2.001018 3.048038 -11.948025 -18.026364 13.416218 12.167516 -25.331367 -3.293553 5.683011 -13.025944 -0.011414 0.000000 0.000000 0.000000 2.286316 1.743800 -24.963396 12.160916 -20.045442 2.157111 2.090385 -0.795074 13.359024 0.000000 0.000000 0.000000 -7.125000 0.000000 0.000000 -17.244049 16.957506 -12.025982 0.000000 0.000000 0.000000 -5.061414 5.186334 25.477369 -12.163333 -20.049112 -2.157994 -7.827894 11.178916 39.876542 0.000000 0.000000 0.000000 7.125000 0.000000 0.000000 37.059844 66.541721 -20.406143
